<svg width="140" height="140" viewBox="0 0 140 140" fill="none" xmlns="http://www.w3.org/2000/svg">
<g filter="url(#filter0_dd_401_1473)">
<rect x="32" y="18" width="76" height="76" rx="38" fill="#FFB20E"/>
<path d="M79.0566 56.7207C79.6367 56.1406 79.6367 55.1738 79.0566 54.5938L66.5527 42.0254C65.9082 41.4453 64.9414 41.4453 64.3613 42.0254L62.8789 43.5078C62.2988 44.0879 62.2988 45.0547 62.8789 45.6992L72.8047 55.625L62.8789 65.6152C62.2988 66.2598 62.2988 67.2266 62.8789 67.8066L64.3613 69.2891C64.9414 69.8691 65.9082 69.8691 66.5527 69.2891L79.0566 56.7207Z" fill="white"/>
<rect x="32.5" y="18.5" width="75" height="75" rx="37.5" stroke="#FAAA01"/>
</g>
<defs>
<filter id="filter0_dd_401_1473" x="0" y="0" width="140" height="140" filterUnits="userSpaceOnUse" color-interpolation-filters="sRGB">
<feFlood flood-opacity="0" result="BackgroundImageFix"/>
<feColorMatrix in="SourceAlpha" type="matrix" values="0 0 0 0 0 0 0 0 0 0 0 0 0 0 0 0 0 0 127 0" result="hardAlpha"/>
<feOffset dy="14"/>
<feGaussianBlur stdDeviation="16"/>
<feColorMatrix type="matrix" values="0 0 0 0 1 0 0 0 0 0.698039 0 0 0 0 0.054902 0 0 0 0.29 0"/>
<feBlend mode="normal" in2="BackgroundImageFix" result="effect1_dropShadow_401_1473"/>
<feColorMatrix in="SourceAlpha" type="matrix" values="0 0 0 0 0 0 0 0 0 0 0 0 0 0 0 0 0 0 127 0" result="hardAlpha"/>
<feOffset dy="5"/>
<feGaussianBlur stdDeviation="4"/>
<feColorMatrix type="matrix" values="0 0 0 0 0.870833 0 0 0 0 0.5926 0 0 0 0 0 0 0 0 0.24 0"/>
<feBlend mode="normal" in2="effect1_dropShadow_401_1473" result="effect2_dropShadow_401_1473"/>
<feBlend mode="normal" in="SourceGraphic" in2="effect2_dropShadow_401_1473" result="shape"/>
</filter>
</defs>
</svg>
