<svg width="261" height="140" viewBox="0 0 261 140" fill="none" xmlns="http://www.w3.org/2000/svg">
<g filter="url(#filter0_dd_401_1831)">
<rect x="40.5" y="20" width="180" height="60" rx="7" fill="white"/>
<path d="M162.789 48.8014V52.2379H160.635V54.4916H162.789V62.1491C162.789 64.7638 163.972 65.8097 166.947 65.8097C167.47 65.8097 167.968 65.7475 168.404 65.6727V63.444C168.031 63.4813 167.794 63.5062 167.383 63.5062C166.051 63.5062 165.466 62.8837 165.466 61.4643V54.4916H168.404V52.2379H165.466V48.8014H162.789Z" fill="#212121"/>
<path d="M175.985 65.9965C179.944 65.9965 182.372 63.3444 182.372 58.9491C182.372 54.5788 179.932 51.9142 175.985 51.9142C172.026 51.9142 169.585 54.5788 169.585 58.9491C169.585 63.3444 172.013 65.9965 175.985 65.9965ZM175.985 63.6183C173.657 63.6183 172.349 61.9125 172.349 58.9491C172.349 56.0106 173.657 54.2924 175.985 54.2924C178.301 54.2924 179.621 56.0106 179.621 58.9491C179.621 61.9 178.301 63.6183 175.985 63.6183Z" fill="#212121"/>
<path d="M184.45 65.735H187.127V57.7289C187.127 55.8239 188.559 54.5414 190.588 54.5414C191.061 54.5414 191.858 54.6286 192.082 54.7033V52.0636C191.796 51.9889 191.286 51.9516 190.887 51.9516C189.119 51.9516 187.612 52.9227 187.226 54.255H187.027V52.1757H184.45V65.735Z" fill="#212121"/>
<path d="M198.729 54.1928C200.709 54.1928 202.004 55.5748 202.066 57.704H195.218C195.368 55.5873 196.75 54.1928 198.729 54.1928ZM202.054 62.0744C201.556 63.1327 200.448 63.7179 198.829 63.7179C196.687 63.7179 195.305 62.2113 195.218 59.8331V59.6837H204.793V58.7499C204.793 54.4916 202.514 51.9142 198.742 51.9142C194.919 51.9142 192.491 54.6659 192.491 58.9989C192.491 63.3319 194.869 65.9965 198.754 65.9965C201.855 65.9965 204.021 64.5023 204.631 62.0744H202.054Z" fill="#212121"/>
<path d="M145.233 60.7278C145.44 64.0573 148.215 66.1867 152.344 66.1867C156.758 66.1867 159.52 63.9541 159.52 60.3922C159.52 57.5918 157.945 56.0431 154.125 55.1527L152.073 54.6494C149.647 54.0815 148.666 53.3201 148.666 51.9909C148.666 50.3132 150.189 49.2163 152.473 49.2163C154.641 49.2163 156.138 50.2874 156.409 52.0038H159.223C159.055 48.8678 156.293 46.661 152.512 46.661C148.447 46.661 145.737 48.8678 145.737 52.1845C145.737 54.9204 147.272 56.5464 150.641 57.3337L153.041 57.9144C155.506 58.4951 156.59 59.3469 156.59 60.7665C156.59 62.4183 154.887 63.6185 152.564 63.6185C150.073 63.6185 148.344 62.4958 148.098 60.7278H145.233Z" fill="#212121"/>
<path d="M117.502 51.9516C115.66 51.9516 114.066 52.8729 113.244 54.4169H113.045V52.1757H110.467V70.2423H113.144V63.6806H113.356C114.066 65.1124 115.597 65.9591 117.527 65.9591C120.951 65.9591 123.13 63.2572 123.13 58.9491C123.13 54.641 120.951 51.9516 117.502 51.9516ZM116.743 63.556C114.502 63.556 113.095 61.788 113.095 58.9616C113.095 56.1227 114.502 54.3546 116.755 54.3546C119.021 54.3546 120.379 56.0853 120.379 58.9491C120.379 61.8253 119.021 63.556 116.743 63.556Z" fill="#212121"/>
<path d="M132.498 51.9516C130.655 51.9516 129.061 52.8729 128.239 54.4169H128.04V52.1757H125.463V70.2423H128.14V63.6806H128.351C129.061 65.1124 130.593 65.9591 132.522 65.9591C135.947 65.9591 138.126 63.2572 138.126 58.9491C138.126 54.641 135.947 51.9516 132.498 51.9516ZM131.738 63.556C129.497 63.556 128.09 61.788 128.09 58.9616C128.09 56.1227 129.497 54.3546 131.751 54.3546C134.017 54.3546 135.374 56.0853 135.374 58.9491C135.374 61.8253 134.017 63.556 131.738 63.556Z" fill="#212121"/>
<path d="M105.664 65.735H108.736L102.012 47.1127H98.9021L92.1785 65.735H95.1467L96.8631 60.7923H103.961L105.664 65.735ZM100.309 50.4939H100.528L103.225 58.3661H97.5987L100.309 50.4939Z" fill="#212121"/>
<path d="M93.9767 33.0664V42.0499H97.2202C99.8972 42.0499 101.447 40.4001 101.447 37.5302C101.447 34.7037 99.8848 33.0664 97.2202 33.0664H93.9767ZM95.3712 34.3364H97.0646C98.926 34.3364 100.028 35.5193 100.028 37.5488C100.028 39.6095 98.9447 40.7799 97.0646 40.7799H95.3712V34.3364Z" fill="#616161"/>
<path d="M106.195 42.1807C108.175 42.1807 109.389 40.8546 109.389 38.657C109.389 36.4718 108.169 35.1395 106.195 35.1395C104.215 35.1395 102.995 36.4718 102.995 38.657C102.995 40.8546 104.209 42.1807 106.195 42.1807ZM106.195 40.9916C105.031 40.9916 104.377 40.1387 104.377 38.657C104.377 37.1877 105.031 36.3286 106.195 36.3286C107.353 36.3286 108.013 37.1877 108.013 38.657C108.013 40.1324 107.353 40.9916 106.195 40.9916Z" fill="#616161"/>
<path d="M119.727 35.2703H118.388L117.181 40.4437H117.075L115.68 35.2703H114.398L113.003 40.4437H112.904L111.69 35.2703H110.333L112.2 42.0499H113.576L114.971 37.057H115.076L116.477 42.0499H117.866L119.727 35.2703Z" fill="#616161"/>
<path d="M121.268 42.0499H122.607V38.0842C122.607 37.0259 123.236 36.366 124.226 36.366C125.215 36.366 125.689 36.9076 125.689 37.9971V42.0499H127.027V37.6609C127.027 36.0485 126.193 35.1395 124.68 35.1395C123.659 35.1395 122.987 35.594 122.657 36.3473H122.557V35.2703H121.268V42.0499Z" fill="#616161"/>
<path d="M129.135 42.0499H130.474V32.6244H129.135V42.0499Z" fill="#616161"/>
<path d="M135.508 42.1807C137.487 42.1807 138.701 40.8546 138.701 38.657C138.701 36.4718 137.481 35.1395 135.508 35.1395C133.528 35.1395 132.308 36.4718 132.308 38.657C132.308 40.8546 133.522 42.1807 135.508 42.1807ZM135.508 40.9916C134.343 40.9916 133.69 40.1387 133.69 38.657C133.69 37.1877 134.343 36.3286 135.508 36.3286C136.666 36.3286 137.325 37.1877 137.325 38.657C137.325 40.1324 136.666 40.9916 135.508 40.9916Z" fill="#616161"/>
<path d="M142.689 41.0352C141.961 41.0352 141.432 40.6803 141.432 40.0702C141.432 39.4725 141.855 39.155 142.789 39.0928L144.445 38.9869V39.5535C144.445 40.3939 143.698 41.0352 142.689 41.0352ZM142.347 42.162C143.237 42.162 143.978 41.776 144.383 41.0974H144.489V42.0499H145.777V37.4181C145.777 35.9862 144.819 35.1395 143.119 35.1395C141.581 35.1395 140.486 35.8866 140.349 37.0508H141.644C141.793 36.5714 142.31 36.2975 143.057 36.2975C143.972 36.2975 144.445 36.7021 144.445 37.4181V38.0033L142.608 38.1091C140.996 38.2087 140.087 38.9122 140.087 40.1324C140.087 41.3713 141.04 42.162 142.347 42.162Z" fill="#616161"/>
<path d="M150.319 42.162C151.253 42.162 152.044 41.72 152.449 40.9791H152.554V42.0499H153.837V32.6244H152.498V36.3473H152.399C152.032 35.6002 151.247 35.1582 150.319 35.1582C148.607 35.1582 147.506 36.5154 147.506 38.657C147.506 40.8048 148.595 42.162 150.319 42.162ZM150.699 36.3597C151.82 36.3597 152.523 37.25 152.523 38.6632C152.523 40.0826 151.826 40.9604 150.699 40.9604C149.566 40.9604 148.888 40.0951 148.888 38.657C148.888 37.2313 149.572 36.3597 150.699 36.3597Z" fill="#616161"/>
<path d="M162.517 42.1807C164.496 42.1807 165.71 40.8546 165.71 38.657C165.71 36.4718 164.49 35.1395 162.517 35.1395C160.537 35.1395 159.317 36.4718 159.317 38.657C159.317 40.8546 160.531 42.1807 162.517 42.1807ZM162.517 40.9916C161.352 40.9916 160.699 40.1387 160.699 38.657C160.699 37.1877 161.352 36.3286 162.517 36.3286C163.675 36.3286 164.335 37.1877 164.335 38.657C164.335 40.1324 163.675 40.9916 162.517 40.9916Z" fill="#616161"/>
<path d="M167.482 42.0499H168.821V38.0842C168.821 37.0259 169.449 36.366 170.439 36.366C171.429 36.366 171.902 36.9076 171.902 37.9971V42.0499H173.241V37.6609C173.241 36.0485 172.407 35.1395 170.894 35.1395C169.873 35.1395 169.2 35.594 168.87 36.3473H168.771V35.2703H167.482V42.0499Z" fill="#616161"/>
<path d="M179.405 33.5831V35.3014H178.328V36.4282H179.405V40.257C179.405 41.5643 179.997 42.0873 181.485 42.0873C181.746 42.0873 181.995 42.0562 182.213 42.0188V40.9044C182.026 40.9231 181.908 40.9355 181.703 40.9355C181.037 40.9355 180.744 40.6243 180.744 39.9146V36.4282H182.213V35.3014H180.744V33.5831H179.405Z" fill="#616161"/>
<path d="M184.01 42.0499H185.348V38.0905C185.348 37.0632 185.958 36.3722 187.054 36.3722C188 36.3722 188.505 36.92 188.505 38.0033V42.0499H189.843V37.6733C189.843 36.0609 188.953 35.1458 187.509 35.1458C186.488 35.1458 185.772 35.6002 185.442 36.3597H185.336V32.6244H184.01V42.0499Z" fill="#616161"/>
<path d="M194.672 36.2788C195.662 36.2788 196.309 36.9698 196.34 38.0344H192.916C192.991 36.9761 193.682 36.2788 194.672 36.2788ZM196.334 40.2196C196.085 40.7488 195.531 41.0414 194.722 41.0414C193.651 41.0414 192.96 40.2881 192.916 39.099V39.0243H197.704V38.5574C197.704 36.4282 196.564 35.1395 194.678 35.1395C192.767 35.1395 191.553 36.5154 191.553 38.6819C191.553 40.8484 192.742 42.1807 194.684 42.1807C196.234 42.1807 197.318 41.4336 197.623 40.2196H196.334Z" fill="#616161"/>
<path d="M77.6535 50.4512C77.686 47.9297 79.0401 45.5438 81.1883 44.2231C79.8331 42.2877 77.5632 41.0605 75.2016 40.9866C72.6827 40.7222 70.2408 42.4939 68.9572 42.4939C67.6488 42.4939 65.6726 41.0129 63.5445 41.0567C60.7706 41.1463 58.1847 42.7233 56.8351 45.1485C53.9341 50.1711 56.098 57.5527 58.8769 61.6126C60.2673 63.6006 61.8922 65.8213 64.0184 65.7425C66.0989 65.6562 66.876 64.4158 69.3875 64.4158C71.8756 64.4158 72.6046 65.7425 74.774 65.6925C77.0065 65.6562 78.4131 63.6956 79.7547 61.6887C80.7537 60.2722 81.5224 58.7066 82.0323 57.05C79.4087 55.9403 77.6566 53.2999 77.6535 50.4512Z" fill="#F17228"/>
<path d="M73.556 38.3166C74.7733 36.8553 75.373 34.977 75.2278 33.0807C73.368 33.276 71.6501 34.1649 70.4164 35.5701C69.21 36.9431 68.5821 38.7883 68.7008 40.6122C70.5613 40.6313 72.3902 39.7666 73.556 38.3166Z" fill="#F17228"/>
</g>
<defs>
<filter id="filter0_dd_401_1831" x="0.5" y="0" width="260" height="140" filterUnits="userSpaceOnUse" color-interpolation-filters="sRGB">
<feFlood flood-opacity="0" result="BackgroundImageFix"/>
<feColorMatrix in="SourceAlpha" type="matrix" values="0 0 0 0 0 0 0 0 0 0 0 0 0 0 0 0 0 0 127 0" result="hardAlpha"/>
<feOffset dy="20"/>
<feGaussianBlur stdDeviation="20"/>
<feColorMatrix type="matrix" values="0 0 0 0 1 0 0 0 0 0.680498 0 0 0 0 0 0 0 0 0.29 0"/>
<feBlend mode="normal" in2="BackgroundImageFix" result="effect1_dropShadow_401_1831"/>
<feColorMatrix in="SourceAlpha" type="matrix" values="0 0 0 0 0 0 0 0 0 0 0 0 0 0 0 0 0 0 127 0" result="hardAlpha"/>
<feOffset dy="5"/>
<feGaussianBlur stdDeviation="5"/>
<feColorMatrix type="matrix" values="0 0 0 0 1 0 0 0 0 0.680498 0 0 0 0 0 0 0 0 0.26 0"/>
<feBlend mode="normal" in2="effect1_dropShadow_401_1831" result="effect2_dropShadow_401_1831"/>
<feBlend mode="normal" in="SourceGraphic" in2="effect2_dropShadow_401_1831" result="shape"/>
</filter>
</defs>
</svg>
